# xmcd
#
# Track frame offsets:
#	150
#	13857
#	28976
#	47931
#	66648
#	84957
#	100412
#	110554
#	132146
#	148280
#	170330
#	175560
#	190679
#	209634
#	228351
#	246660
#	262794
#	284844
#
# Disc length: 4017 seconds
#
# Revision: 0
# Processed by: cddbd v1.5PL3 Copyright (c) Steve Scherf et al.
# Submitted via: dBpowerAMP V4.0
#
DISCID=160faf12
DTITLE=John Denver - Greatest Hits
DYEAR=1900
DGENRE=
TTITLE0=Take Me Home, Country Road
TTITLE1=Follow Me
TTITLE2=Starwood In Aspen
TTITLE3=For Baby (For Bobbie)
TTITLE4=Rhymes And Reasons
TTITLE5=Leaving, On A Jet Plane
TTITLE6=The Eagle And The Hawk
TTITLE7=Sunshine On My Shoulders
TTITLE8=Goodbye Again
TTITLE9=Poems, Prayers and Promises
TTITLE10=Rocky Mountain High
TTITLE11=Welcome To My Morning (Farewell Andromeda)
TTITLE12=Fly Away
TTITLE13=Like A Sad Song
TTITLE14=Looking For Space
TTITLE15=I'm Sorry
TTITLE16=My Sweet Lady
TTITLE17=Calypso
EXTD=
EXTT0=
EXTT1=
EXTT2=
EXTT3=
EXTT4=
EXTT5=
EXTT6=
EXTT7=
EXTT8=
EXTT9=
EXTT10=
EXTT11=
EXTT12=
EXTT13=
EXTT14=
EXTT15=
EXTT16=
EXTT17=
PLAYORDER=
